<svg width="974" height="288" viewBox="0 0 974 288" fill="none" xmlns="http://www.w3.org/2000/svg">
<path d="M315 40C317.209 40 319 41.7909 319 44V244C319 246.209 317.209 248 315 248H266C263.791 248 262 246.209 262 244V44C262 41.7909 263.791 40 266 40H315Z" fill="white"/>
<path d="M105.174 194.644C105.174 196.853 106.965 198.644 109.174 198.644H163.999C166.208 198.644 167.999 200.435 167.999 202.644V244C167.999 246.209 166.208 248 163.999 248H44C41.7909 248 40 246.209 40 244V44C40 41.7909 41.7909 40 44 40H101.174C103.383 40 105.174 41.7909 105.174 44V194.644Z" fill="white"/>
<path d="M934 244C934 246.209 932.209 248 930 248H870.979C869.635 248 868.381 247.325 867.641 246.203L807.175 154.538C804.99 151.226 799.836 152.773 799.836 156.741V244C799.836 246.209 798.045 248 795.836 248H738.662C736.453 248 734.662 246.209 734.662 244V44C734.662 41.7909 736.453 40 738.662 40H797.663C799.018 40 800.281 40.6862 801.019 41.8231L861.47 135.011C863.638 138.353 868.826 136.818 868.826 132.834V44C868.826 41.7909 870.617 40 872.826 40H930C932.209 40 934 41.7909 934 44V244Z" fill="white"/>
<path d="M42 41H932V39H42V41ZM933 42V246H935V42H933ZM932 247H42V249H932V247ZM41 246V42H39V246H41ZM42 247C41.4477 247 41 246.552 41 246H39C39 247.657 40.3432 249 42 249V247ZM933 246C933 246.552 932.552 247 932 247V249C933.657 249 935 247.657 935 246H933ZM932 41C932.552 41 933 41.4477 933 42H935C935 40.3431 933.657 39 932 39V41ZM42 39C40.3431 39 39 40.3431 39 42H41C41 41.4477 41.4477 41 42 41V39Z" fill="white" fill-opacity="0.1"/>
<rect x="43" y="43" width="59.375" height="30" rx="3" fill="#404040"/>
<rect x="43.5" y="43.5" width="58.375" height="29" rx="2.5" stroke="black" stroke-opacity="0.14902"/>
<path d="M54.3438 55C54.2969 54.6042 54.1068 54.2969 53.7734 54.0781C53.4401 53.8594 53.0313 53.75 52.5469 53.75C52.1927 53.75 51.8828 53.8073 51.6172 53.9219C51.3542 54.0365 51.1484 54.194 51 54.3945C50.8542 54.5951 50.7813 54.8229 50.7813 55.0781C50.7813 55.2917 50.832 55.4753 50.9336 55.6289C51.0378 55.7799 51.1706 55.9062 51.332 56.0078C51.4935 56.1068 51.6628 56.1888 51.8398 56.2539C52.0169 56.3164 52.1797 56.3672 52.3281 56.4062L53.1406 56.625C53.349 56.6797 53.5807 56.7552 53.8359 56.8516C54.0938 56.9479 54.3398 57.0794 54.5742 57.2461C54.8112 57.4102 55.0065 57.6211 55.1602 57.8789C55.3138 58.1367 55.3906 58.4531 55.3906 58.8281C55.3906 59.2604 55.2773 59.651 55.0508 60C54.8268 60.349 54.4987 60.6263 54.0664 60.832C53.6367 61.0378 53.1146 61.1406 52.5 61.1406C51.9271 61.1406 51.431 61.0482 51.0117 60.8633C50.5951 60.6784 50.2669 60.4206 50.0273 60.0898C49.7904 59.7591 49.6563 59.375 49.625 58.9375H50.625C50.651 59.2396 50.7526 59.4896 50.9297 59.6875C51.1094 59.8828 51.3359 60.0286 51.6094 60.125C51.8854 60.2187 52.1823 60.2656 52.5 60.2656C52.8698 60.2656 53.2018 60.2057 53.4961 60.0859C53.7904 59.9635 54.0234 59.7943 54.1953 59.5781C54.3672 59.3594 54.4531 59.1042 54.4531 58.8125C54.4531 58.5469 54.3789 58.3307 54.2305 58.1641C54.082 57.9974 53.8867 57.862 53.6445 57.7578C53.4023 57.6536 53.1406 57.5625 52.8594 57.4844L51.875 57.2031C51.25 57.0234 50.7552 56.7669 50.3906 56.4336C50.026 56.1003 49.8438 55.6641 49.8438 55.125C49.8438 54.6771 49.9648 54.2865 50.207 53.9531C50.4518 53.6172 50.7799 53.3568 51.1914 53.1719C51.6055 52.9844 52.0677 52.8906 52.5781 52.8906C53.0938 52.8906 53.5521 52.9831 53.9531 53.168C54.3542 53.3503 54.6719 53.6003 54.9062 53.918C55.1432 54.2357 55.2682 54.5964 55.2813 55H54.3438ZM59.374 61.125C58.7959 61.125 58.2972 60.9974 57.8779 60.7422C57.4613 60.4844 57.1396 60.125 56.9131 59.6641C56.6891 59.2005 56.5771 58.6615 56.5771 58.0469C56.5771 57.4323 56.6891 56.8906 56.9131 56.4219C57.1396 55.9505 57.4548 55.5833 57.8584 55.3203C58.2646 55.0547 58.7386 54.9219 59.2803 54.9219C59.5928 54.9219 59.9014 54.974 60.2061 55.0781C60.5107 55.1823 60.7881 55.3516 61.0381 55.5859C61.2881 55.8177 61.4873 56.125 61.6357 56.5078C61.7842 56.8906 61.8584 57.362 61.8584 57.9219V58.3125H57.2334V57.5156H60.9209C60.9209 57.1771 60.8532 56.875 60.7178 56.6094C60.585 56.3437 60.3949 56.1341 60.1475 55.9805C59.9027 55.8268 59.6136 55.75 59.2803 55.75C58.9131 55.75 58.5954 55.8411 58.3271 56.0234C58.0615 56.2031 57.8571 56.4375 57.7139 56.7266C57.5706 57.0156 57.499 57.3255 57.499 57.6562V58.1875C57.499 58.6406 57.5771 59.0247 57.7334 59.3398C57.8923 59.6523 58.1123 59.8906 58.3936 60.0547C58.6748 60.2161 59.0016 60.2969 59.374 60.2969C59.6162 60.2969 59.835 60.263 60.0303 60.1953C60.2282 60.125 60.3988 60.0208 60.542 59.8828C60.6852 59.7422 60.7959 59.5677 60.874 59.3594L61.7646 59.6094C61.6709 59.9115 61.5133 60.1771 61.292 60.4062C61.0706 60.6328 60.7972 60.8099 60.4717 60.9375C60.1462 61.0625 59.7803 61.125 59.374 61.125ZM65.6982 61.125C65.1357 61.125 64.6514 60.9922 64.2451 60.7266C63.8389 60.4609 63.5264 60.0951 63.3076 59.6289C63.0889 59.1628 62.9795 58.6302 62.9795 58.0312C62.9795 57.4219 63.0915 56.8841 63.3154 56.418C63.542 55.9492 63.8571 55.5833 64.2607 55.3203C64.667 55.0547 65.141 54.9219 65.6826 54.9219C66.1045 54.9219 66.4847 55 66.8232 55.1562C67.1618 55.3125 67.4391 55.5312 67.6553 55.8125C67.8714 56.0937 68.0055 56.4219 68.0576 56.7969H67.1357C67.0654 56.5234 66.9092 56.2812 66.667 56.0703C66.4274 55.8568 66.1045 55.75 65.6982 55.75C65.3389 55.75 65.0238 55.8437 64.7529 56.0312C64.4847 56.2161 64.2751 56.4779 64.124 56.8164C63.9756 57.1523 63.9014 57.5469 63.9014 58C63.9014 58.4635 63.9743 58.8672 64.1201 59.2109C64.2686 59.5547 64.4769 59.8216 64.7451 60.0117C65.016 60.2018 65.3337 60.2969 65.6982 60.2969C65.9378 60.2969 66.1553 60.2552 66.3506 60.1719C66.5459 60.0885 66.7113 59.9688 66.8467 59.8125C66.9821 59.6562 67.0785 59.4687 67.1357 59.25H68.0576C68.0055 59.6042 67.8766 59.9232 67.6709 60.207C67.4678 60.4883 67.1982 60.7122 66.8623 60.8789C66.529 61.043 66.141 61.125 65.6982 61.125ZM72.0146 55V55.7812H68.9053V55H72.0146ZM69.8115 53.5625H70.7334V59.2812C70.7334 59.5417 70.7712 59.737 70.8467 59.8672C70.9248 59.9948 71.0238 60.0807 71.1436 60.125C71.266 60.1667 71.3949 60.1875 71.5303 60.1875C71.6318 60.1875 71.7152 60.1823 71.7803 60.1719C71.8454 60.1589 71.8975 60.1484 71.9365 60.1406L72.124 60.9687C72.0615 60.9922 71.9743 61.0156 71.8623 61.0391C71.7503 61.0651 71.6084 61.0781 71.4365 61.0781C71.1761 61.0781 70.9209 61.0221 70.6709 60.9102C70.4235 60.7982 70.2178 60.6276 70.0537 60.3984C69.8923 60.1693 69.8115 59.8802 69.8115 59.5312V53.5625ZM73.4014 61V55H74.3232V61H73.4014ZM73.8701 54C73.6904 54 73.5355 53.9388 73.4053 53.8164C73.2777 53.694 73.2139 53.5469 73.2139 53.375C73.2139 53.2031 73.2777 53.056 73.4053 52.9336C73.5355 52.8112 73.6904 52.75 73.8701 52.75C74.0498 52.75 74.2035 52.8112 74.3311 52.9336C74.4613 53.056 74.5264 53.2031 74.5264 53.375C74.5264 53.5469 74.4613 53.694 74.3311 53.8164C74.2035 53.9388 74.0498 54 73.8701 54ZM78.4492 61.125C77.9076 61.125 77.4323 60.9961 77.0234 60.7383C76.6172 60.4805 76.2995 60.1198 76.0703 59.6562C75.8438 59.1927 75.7305 58.651 75.7305 58.0312C75.7305 57.4062 75.8438 56.8607 76.0703 56.3945C76.2995 55.9284 76.6172 55.5664 77.0234 55.3086C77.4323 55.0508 77.9076 54.9219 78.4492 54.9219C78.9909 54.9219 79.4648 55.0508 79.8711 55.3086C80.2799 55.5664 80.5977 55.9284 80.8242 56.3945C81.0534 56.8607 81.168 57.4062 81.168 58.0312C81.168 58.651 81.0534 59.1927 80.8242 59.6562C80.5977 60.1198 80.2799 60.4805 79.8711 60.7383C79.4648 60.9961 78.9909 61.125 78.4492 61.125ZM78.4492 60.2969C78.8607 60.2969 79.1992 60.1914 79.4648 59.9805C79.7305 59.7695 79.9271 59.4922 80.0547 59.1484C80.1823 58.8047 80.2461 58.4323 80.2461 58.0312C80.2461 57.6302 80.1823 57.2565 80.0547 56.9102C79.9271 56.5638 79.7305 56.2839 79.4648 56.0703C79.1992 55.8568 78.8607 55.75 78.4492 55.75C78.0378 55.75 77.6992 55.8568 77.4336 56.0703C77.168 56.2839 76.9714 56.5638 76.8438 56.9102C76.7161 57.2565 76.6523 57.6302 76.6523 58.0312C76.6523 58.4323 76.7161 58.8047 76.8438 59.1484C76.9714 59.4922 77.168 59.7695 77.4336 59.9805C77.6992 60.1914 78.0378 60.2969 78.4492 60.2969ZM83.4971 57.3906V61H82.5752V55H83.4658V55.9375H83.5439C83.6846 55.6328 83.8981 55.388 84.1846 55.2031C84.471 55.0156 84.8408 54.9219 85.2939 54.9219C85.7002 54.9219 86.0557 55.0052 86.3604 55.1719C86.665 55.3359 86.902 55.5859 87.0713 55.9219C87.2406 56.2552 87.3252 56.6771 87.3252 57.1875V61H86.4033V57.25C86.4033 56.7786 86.2809 56.4115 86.0361 56.1484C85.7913 55.8828 85.4554 55.75 85.0283 55.75C84.734 55.75 84.471 55.8138 84.2393 55.9414C84.0101 56.069 83.8291 56.2552 83.6963 56.5C83.5635 56.7448 83.4971 57.0417 83.4971 57.3906ZM94.9004 53V61H93.9316V54.0156H93.8848L91.9316 55.3125V54.3281L93.9316 53H94.9004Z" fill="white"/>
</svg>
